<svg width="24" height="24" viewBox="0 0 24 24" fill="none" xmlns="http://www.w3.org/2000/svg">
<path fill-rule="evenodd" clip-rule="evenodd" d="M12.5261 6.69267C12.2824 7.14221 12.4523 7.70159 12.9 7.94251C14.5449 8.82959 16.8157 10.4597 17.6612 11.7742L5.07689 11.7742C4.56642 11.7742 4.15381 12.1868 4.15381 12.6973C4.15381 13.2077 4.56642 13.6204 5.07689 13.6204L17.6566 13.6204C16.8166 14.9311 14.5864 16.5308 12.9 17.4419C12.4523 17.6837 12.2843 18.2422 12.5261 18.6917C12.768 19.1404 13.3273 19.3084 13.776 19.0656C14.7877 18.5219 19.8203 15.6594 19.8433 12.7074C19.8433 12.7037 19.8461 12.701 19.8461 12.6973L19.8452 12.6936C19.8452 12.6917 19.8461 12.6899 19.8461 12.6871C19.8461 9.7379 14.7895 6.86436 13.776 6.31882C13.3273 6.07605 12.768 6.24405 12.5261 6.69267Z" fill="#E0C28F"/>
</svg>
