<svg width="95" height="19" viewBox="0 0 95 19" fill="none" xmlns="http://www.w3.org/2000/svg">
<path fill-rule="evenodd" clip-rule="evenodd" d="M16.6056 7.83457C16.3256 6.64344 15.0824 6.58193 14.083 6.532C13.4541 6.50016 12.8036 6.46832 12.5315 6.18682C12.2543 5.90025 12.038 5.351 11.8274 4.81984C11.4171 3.78068 10.9518 2.6033 9.78016 2.6033C8.6093 2.6033 8.14474 3.78068 7.7337 4.81984C7.52384 5.351 7.30675 5.90025 7.03031 6.18682C6.7575 6.46832 6.10694 6.50016 5.47808 6.532C4.47872 6.58193 3.23549 6.64344 2.95544 7.83457C2.68986 8.96492 3.51988 9.64877 4.25222 10.2523C4.75298 10.6648 5.22625 11.0555 5.33118 11.5332C5.43322 11.997 5.2798 12.5962 5.13145 13.1766C4.87673 14.1745 4.58727 15.3048 5.55334 16.0335C5.8551 16.2615 6.16121 16.3519 6.4637 16.3519C7.1186 16.3519 7.75686 15.9293 8.30319 15.5675C8.80902 15.2332 9.33222 14.8866 9.78016 14.8866C10.2281 14.8866 10.752 15.2332 11.2571 15.5675C12.0568 16.0965 13.0511 16.7536 14.0085 16.0335C14.9745 15.3048 14.6851 14.1738 14.4296 13.1751C14.2813 12.5955 14.1286 11.9963 14.2299 11.5332C14.3348 11.0555 14.8081 10.6655 15.3089 10.2523C16.0412 9.64877 16.8712 8.96492 16.6056 7.83457Z" fill="#DC810B"/>
<path fill-rule="evenodd" clip-rule="evenodd" d="M35.4196 7.83457C35.1395 6.64344 33.8963 6.58193 32.897 6.532C32.2681 6.50016 31.6175 6.46832 31.3454 6.18682C31.0683 5.90025 30.8519 5.351 30.6413 4.81984C30.231 3.78068 29.7657 2.6033 28.5941 2.6033C27.4233 2.6033 26.9587 3.78068 26.5477 4.81984C26.3378 5.351 26.1207 5.90025 25.8443 6.18682C25.5715 6.46832 24.9209 6.50016 24.292 6.532C23.2927 6.58193 22.0495 6.64344 21.7694 7.83457C21.5038 8.96492 22.3338 9.64877 23.0662 10.2523C23.5669 10.6648 24.0402 11.0555 24.1451 11.5332C24.2472 11.997 24.0938 12.5962 23.9454 13.1766C23.6907 14.1745 23.4012 15.3048 24.3673 16.0335C24.6691 16.2615 24.9752 16.3519 25.2777 16.3519C25.9326 16.3519 26.5708 15.9293 27.1172 15.5675C27.623 15.2332 28.1462 14.8866 28.5941 14.8866C29.0421 14.8866 29.566 15.2332 30.0711 15.5675C30.8707 16.0965 31.865 16.7536 32.8224 16.0335C33.7885 15.3048 33.499 14.1738 33.2436 13.1751C33.0952 12.5955 32.9425 11.9963 33.0439 11.5332C33.1488 11.0555 33.6221 10.6655 34.1228 10.2523C34.8552 9.64877 35.6852 8.96492 35.4196 7.83457Z" fill="#DC810B"/>
<path fill-rule="evenodd" clip-rule="evenodd" d="M54.2355 7.83457C53.9555 6.64344 52.7122 6.58193 51.7129 6.532C51.084 6.50016 50.4335 6.46832 50.1614 6.18682C49.8842 5.90025 49.6678 5.351 49.4573 4.81984C49.0469 3.78068 48.5816 2.6033 47.41 2.6033C46.2392 2.6033 45.7746 3.78068 45.3636 4.81984C45.1537 5.351 44.9366 5.90025 44.6602 6.18682C44.3874 6.46832 43.7368 6.50016 43.108 6.532C42.1086 6.58193 40.8654 6.64344 40.5853 7.83457C40.3197 8.96492 41.1498 9.64877 41.8821 10.2523C42.3829 10.6648 42.8561 11.0555 42.9611 11.5332C43.0631 11.997 42.9097 12.5962 42.7613 13.1766C42.5066 14.1745 42.2172 15.3048 43.1832 16.0335C43.485 16.2615 43.7911 16.3519 44.0936 16.3519C44.7485 16.3519 45.3867 15.9293 45.9331 15.5675C46.4389 15.2332 46.9621 14.8866 47.41 14.8866C47.858 14.8866 48.3819 15.2332 48.887 15.5675C49.6867 16.0965 50.6809 16.7536 51.6383 16.0335C52.6044 15.3048 52.315 14.1738 52.0595 13.1751C51.9112 12.5955 51.7585 11.9963 51.8598 11.5332C51.9647 11.0555 52.438 10.6655 52.9387 10.2523C53.6711 9.64877 54.5011 8.96492 54.2355 7.83457Z" fill="#DC810B"/>
<path fill-rule="evenodd" clip-rule="evenodd" d="M73.0509 7.83457C72.7709 6.64344 71.5277 6.58193 70.5283 6.532C69.8995 6.50016 69.2489 6.46832 68.9768 6.18682C68.6996 5.90025 68.4833 5.351 68.2727 4.81984C67.8624 3.78068 67.3971 2.6033 66.2255 2.6033C65.0546 2.6033 64.59 3.78068 64.179 4.81984C63.9692 5.351 63.7521 5.90025 63.4756 6.18682C63.2028 6.46832 62.5522 6.50016 61.9234 6.532C60.924 6.58193 59.6808 6.64344 59.4007 7.83457C59.1352 8.96492 59.9652 9.64877 60.6975 10.2523C61.1983 10.6648 61.6716 11.0555 61.7765 11.5332C61.8785 11.997 61.7251 12.5962 61.5768 13.1766C61.322 14.1745 61.0326 15.3048 61.9987 16.0335C62.3004 16.2615 62.6065 16.3519 62.909 16.3519C63.5639 16.3519 64.2022 15.9293 64.7485 15.5675C65.2543 15.2332 65.7775 14.8866 66.2255 14.8866C66.6734 14.8866 67.1973 15.2332 67.7024 15.5675C68.5021 16.0965 69.4964 16.7536 70.4538 16.0335C71.4198 15.3048 71.1304 14.1738 70.8749 13.1751C70.7266 12.5955 70.5739 11.9963 70.6752 11.5332C70.7801 11.0555 71.2534 10.6655 71.7542 10.2523C72.4865 9.64877 73.3165 8.96492 73.0509 7.83457Z" fill="#DC810B"/>
<path fill-rule="evenodd" clip-rule="evenodd" d="M86.4132 3.89662L87.789 6.64586C87.9252 6.91679 88.1864 7.10344 88.4866 7.14558L91.5648 7.58886C92.0637 7.65435 92.4144 8.11269 92.349 8.61166C92.3219 8.81561 92.2263 9.00527 92.078 9.14826L89.8519 11.2871C89.6328 11.4956 89.5328 11.7989 89.5854 12.0969L90.1123 15.1163C90.1935 15.6206 89.8503 16.0947 89.3461 16.176C89.1474 16.2076 88.9442 16.1737 88.7666 16.0797L86.0166 14.6543C85.7457 14.5143 85.4243 14.5143 85.1534 14.6543L82.4019 16.0804C81.9511 16.3197 81.3919 16.1481 81.1526 15.6974C81.0585 15.519 81.0246 15.3158 81.057 15.1171L81.5838 12.0969C81.6358 11.7997 81.5357 11.4964 81.3174 11.2879L79.089 9.14901C78.727 8.79981 78.7157 8.22332 79.0649 7.86057C79.2079 7.7123 79.3975 7.61672 79.6022 7.58961L82.6804 7.14634C82.9806 7.10419 83.2418 6.91755 83.3788 6.64661L84.7568 3.89662C84.9938 3.43905 85.5568 3.26069 86.0144 3.49776C86.1852 3.58581 86.3244 3.72504 86.4132 3.89662Z" stroke="#DC810B" stroke-width="1.12889" stroke-linecap="round" stroke-linejoin="round"/>
</svg>
