<svg width="95" height="20" viewBox="0 0 95 20" fill="none" xmlns="http://www.w3.org/2000/svg">
<path fill-rule="evenodd" clip-rule="evenodd" d="M16.6005 8.69279C16.3205 7.50166 15.0772 7.44015 14.0779 7.39022C13.449 7.35838 12.7985 7.32654 12.5264 7.04504C12.2492 6.75847 12.0328 6.20922 11.8222 5.67806C11.4119 4.6389 10.9466 3.46152 9.77504 3.46152C8.60417 3.46152 8.13961 4.6389 7.72857 5.67806C7.51872 6.20922 7.30162 6.75847 7.02519 7.04504C6.75237 7.32654 6.10181 7.35838 5.47296 7.39022C4.47359 7.44015 3.23036 7.50166 2.95031 8.69279C2.68473 9.82314 3.51476 10.507 4.24709 11.1105C4.74786 11.523 5.22113 11.9138 5.32605 12.3914C5.42809 12.8552 5.27468 13.4544 5.12633 14.0348C4.8716 15.0327 4.58214 16.163 5.54822 16.8918C5.84998 17.1197 6.15608 17.2102 6.45857 17.2102C7.11347 17.2102 7.75173 16.7876 8.29807 16.4257C8.8039 16.0914 9.3271 15.7448 9.77504 15.7448C10.223 15.7448 10.7469 16.0914 11.252 16.4257C12.0516 16.9547 13.0459 17.6118 14.0033 16.8918C14.9694 16.163 14.6799 15.032 14.4245 14.0333C14.2761 13.4537 14.1235 12.8545 14.2248 12.3914C14.3297 11.9138 14.803 11.5237 15.3037 11.1105C16.0361 10.507 16.8661 9.82314 16.6005 8.69279Z" fill="#CC9B47"/>
<path fill-rule="evenodd" clip-rule="evenodd" d="M35.415 8.69279C35.1349 7.50166 33.8917 7.44015 32.8923 7.39022C32.2635 7.35838 31.6129 7.32654 31.3408 7.04504C31.0637 6.75847 30.8473 6.20922 30.6367 5.67806C30.2264 4.6389 29.7611 3.46152 28.5895 3.46152C27.4186 3.46152 26.9541 4.6389 26.543 5.67806C26.3332 6.20922 26.1161 6.75847 25.8396 7.04504C25.5668 7.32654 24.9163 7.35838 24.2874 7.39022C23.288 7.44015 22.0448 7.50166 21.7648 8.69279C21.4992 9.82314 22.3292 10.507 23.0615 11.1105C23.5623 11.523 24.0356 11.9138 24.1405 12.3914C24.2425 12.8552 24.0891 13.4544 23.9408 14.0348C23.6861 15.0327 23.3966 16.163 24.3627 16.8918C24.6644 17.1197 24.9705 17.2102 25.273 17.2102C25.9279 17.2102 26.5662 16.7876 27.1125 16.4257C27.6184 16.0914 28.1416 15.7448 28.5895 15.7448C29.0374 15.7448 29.5614 16.0914 30.0665 16.4257C30.8661 16.9547 31.8604 17.6118 32.8178 16.8918C33.7839 16.163 33.4944 15.032 33.2389 14.0333C33.0906 13.4537 32.9379 12.8545 33.0392 12.3914C33.1441 11.9138 33.6174 11.5237 34.1182 11.1105C34.8505 10.507 35.6805 9.82314 35.415 8.69279Z" fill="#CC9B47"/>
<path fill-rule="evenodd" clip-rule="evenodd" d="M54.2301 8.69279C53.9501 7.50166 52.7069 7.44015 51.7075 7.39022C51.0787 7.35838 50.4281 7.32654 50.156 7.04504C49.8788 6.75847 49.6625 6.20922 49.4519 5.67806C49.0416 4.6389 48.5763 3.46152 47.4047 3.46152C46.2338 3.46152 45.7692 4.6389 45.3582 5.67806C45.1484 6.20922 44.9313 6.75847 44.6548 7.04504C44.382 7.32654 43.7314 7.35838 43.1026 7.39022C42.1032 7.44015 40.86 7.50166 40.5799 8.69279C40.3144 9.82314 41.1444 10.507 41.8767 11.1105C42.3775 11.523 42.8508 11.9138 42.9557 12.3914C43.0577 12.8552 42.9043 13.4544 42.756 14.0348C42.5012 15.0327 42.2118 16.163 43.1779 16.8918C43.4796 17.1197 43.7857 17.2102 44.0882 17.2102C44.7431 17.2102 45.3814 16.7876 45.9277 16.4257C46.4335 16.0914 46.9567 15.7448 47.4047 15.7448C47.8526 15.7448 48.3765 16.0914 48.8816 16.4257C49.6813 16.9547 50.6756 17.6118 51.633 16.8918C52.599 16.163 52.3096 15.032 52.0541 14.0333C51.9058 13.4537 51.7531 12.8545 51.8544 12.3914C51.9593 11.9138 52.4326 11.5237 52.9334 11.1105C53.6657 10.507 54.4957 9.82314 54.2301 8.69279Z" fill="#CC9B47"/>
<path fill-rule="evenodd" clip-rule="evenodd" d="M73.0456 8.69279C72.7655 7.50166 71.5223 7.44015 70.5229 7.39022C69.8941 7.35838 69.2435 7.32654 68.9714 7.04504C68.6943 6.75847 68.4779 6.20922 68.2673 5.67806C67.857 4.6389 67.3917 3.46152 66.2201 3.46152C65.0492 3.46152 64.5847 4.6389 64.1736 5.67806C63.9638 6.20922 63.7467 6.75847 63.4703 7.04504C63.1974 7.32654 62.5469 7.35838 61.918 7.39022C60.9187 7.44015 59.6754 7.50166 59.3954 8.69279C59.1298 9.82314 59.9598 10.507 60.6922 11.1105C61.1929 11.523 61.6662 11.9138 61.7711 12.3914C61.8732 12.8552 61.7197 13.4544 61.5714 14.0348C61.3167 15.0327 61.0272 16.163 61.9933 16.8918C62.295 17.1197 62.6012 17.2102 62.9036 17.2102C63.5585 17.2102 64.1968 16.7876 64.7431 16.4257C65.249 16.0914 65.7722 15.7448 66.2201 15.7448C66.668 15.7448 67.192 16.0914 67.6971 16.4257C68.4967 16.9547 69.491 17.6118 70.4484 16.8918C71.4145 16.163 71.125 15.032 70.8696 14.0333C70.7212 13.4537 70.5685 12.8545 70.6698 12.3914C70.7748 11.9138 71.248 11.5237 71.7488 11.1105C72.4811 10.507 73.3112 9.82314 73.0456 8.69279Z" fill="#CC9B47"/>
<path fill-rule="evenodd" clip-rule="evenodd" d="M86.4074 4.75484L87.7831 7.50408C87.9193 7.77501 88.1805 7.96165 88.4808 8.0038L91.5589 8.44707C92.0579 8.51257 92.4086 8.9709 92.3431 9.46987C92.316 9.67383 92.2204 9.86348 92.0722 10.0065L89.846 12.1454C89.627 12.3538 89.5269 12.6571 89.5796 12.9551L90.1064 15.9746C90.1877 16.4788 89.8445 16.9529 89.3403 17.0342C89.1416 17.0658 88.9384 17.032 88.7608 16.9379L86.0108 15.5125C85.7398 15.3725 85.4185 15.3725 85.1475 15.5125L82.396 16.9386C81.9452 17.1779 81.3861 17.0063 81.1467 16.5556C81.0527 16.3772 81.0188 16.174 81.0511 15.9753L81.578 12.9551C81.6299 12.6579 81.5298 12.3546 81.3115 12.1461L79.0831 10.0072C78.7211 9.65802 78.7098 9.08153 79.059 8.71878C79.202 8.57052 79.3917 8.47494 79.5964 8.44782L82.6745 8.00455C82.9748 7.96241 83.2359 7.77576 83.3729 7.50483L84.7509 4.75484C84.988 4.29727 85.5509 4.1189 86.0085 4.35597C86.1793 4.44402 86.3186 4.58326 86.4074 4.75484Z" stroke="#E0C28F" stroke-width="1.12889" stroke-linecap="round" stroke-linejoin="round"/>
</svg>
